PathFileType	4	(X/Y/Z)	C:\Users\Basilio\Documents\Thesis Gigler\squatting_fais\c3dfiles\044\SLS_front_pre3\markers_experimental.trc
DataRate	CameraRate	NumFrames	NumMarkers	Units	OrigDataRate	OrigDataStartFrame	OrigNumFrames
200.000000	200.000000	4	60	mm	200.000000	1204	1376
Frame#	Time	FHD			LBHD			RBHD			C7			T10			CLAV			LSHO			LUUPA			LMUPA			LDUPA			LLEP			LMEP			LUL			LRFIN			RSHO			RUPA1			RMUPA			RDUPA			RLEP			RMEP			RUL			RUFIN			LASI			RASI			USACR			LSACR			RSACR			LTHI1			LTHI2			LTHI3			LTHI4			LLFC			LMFC			LTIB1			LTIB2			LTIB3			LTIB4			LLMAL			LMMAL			LHEE			LMT1			LMT2			LMT5			RTHI			RTHI2			RTHI3			RTHI4			RLFC			RMFC			RTIB1			RTIB2			RTIB3			RTIB4			RLMAL			RHEE			RMT1			RMT2			RMT5			LRAD			RMMAL			
		X1	Y1	Z1	X2	Y2	Z2	X3	Y3	Z3	X4	Y4	Z4	X5	Y5	Z5	X6	Y6	Z6	X7	Y7	Z7	X8	Y8	Z8	X9	Y9	Z9	X10	Y10	Z10	X11	Y11	Z11	X12	Y12	Z12	X13	Y13	Z13	X14	Y14	Z14	X15	Y15	Z15	X16	Y16	Z16	X17	Y17	Z17	X18	Y18	Z18	X19	Y19	Z19	X20	Y20	Z20	X21	Y21	Z21	X22	Y22	Z22	X23	Y23	Z23	X24	Y24	Z24	X25	Y25	Z25	X26	Y26	Z26	X27	Y27	Z27	X28	Y28	Z28	X29	Y29	Z29	X30	Y30	Z30	X31	Y31	Z31	X32	Y32	Z32	X33	Y33	Z33	X34	Y34	Z34	X35	Y35	Z35	X36	Y36	Z36	X37	Y37	Z37	X38	Y38	Z38	X39	Y39	Z39	X40	Y40	Z40	X41	Y41	Z41	X42	Y42	Z42	X43	Y43	Z43	X44	Y44	Z44	X45	Y45	Z45	X46	Y46	Z46	X47	Y47	Z47	X48	Y48	Z48	X49	Y49	Z49	X50	Y50	Z50	X51	Y51	Z51	X52	Y52	Z52	X53	Y53	Z53	X54	Y54	Z54	X55	Y55	Z55	X56	Y56	Z56	X57	Y57	Z57	X58	Y58	Z58	X59	Y59	Z59	X60	Y60	Z60	

1205	6.02	-226.6817779541016	1812.43017578125	-857.0814208984377	-359.2846984863282	1764.947875976563	-929.0969848632815	-392.423797607422	1740.38623046875	-767.6757202148439	-398.2508239746095	1568.130126953125	-861.3603515625002	-378.1986694335938	1264.829223632813	-863.1090087890627	-254.2470703125001	1545.93359375	-863.488952636719	-304.2864685058594	1598.4677734375	-1007.780151367188	-135.6231994628907	1582.17041015625	-1102.085693359375	-109.9580688476563	1592.049682617188	-1059.66064453125	-67.24266815185548	1578.556762695313	-1100.021240234375	-9.300991058349611	1578.737426757813	-1089.3271484375	-18.6773910522461	1502.556762695313	-1077.206787109375	244.6716003417969	1590.377319335938	-969.9695434570315	254.5676574707032	1604.550537109375	-868.3728027343752	-313.7566223144532	1577.992431640625	-703.6488037109376	-153.2286071777344	1554.249145507813	-608.3719482421876	-126.0390930175782	1572.2900390625	-648.3462524414064	-83.58082580566408	1555.792114257813	-608.0183105468751	-23.27680778503418	1561.292236328125	-619.0894775390626	-24.01192283630372	1481.539428710938	-634.8776855468751	231.9353332519532	1586.19384765625	-735.0825805664064	249.3464508056641	1575.0205078125	-849.210388183594	-196.9391021728516	1078.064819335938	-975.995544433594	-186.2949371337891	1061.659790039063	-759.8184204101564	-362.9397277832032	1119.55908203125	-855.707214355469	-368.0882568359376	1086.723754882813	-882.2093505859377	-364.1177673339844	1089.595458984375	-824.8364868164065	-307.9400329589844	845.548278808594	-1052.439086914063	-278.6782531738282	765.9524536132814	-1057.747436523438	-230.6966705322266	765.5952148437501	-1051.932739257813	-309.2915649414063	714.5731811523439	-1045.333129882813	-303.0917358398438	554.2386474609376	-1040.266845703125	-289.6393127441407	539.9158935546876	-918.5727539062502	-280.2078247070313	373.8998413085938	-983.4409790039065	-308.0675354003907	333.6387329101563	-1057.098266601563	-277.3596801757813	329.1523742675782	-1022.124633789063	-291.3360595703126	249.2575073242188	-998.7857666015627	-344.4148864746094	134.5211486816407	-1052.944946289063	-323.2839965820313	138.0169219970703	-969.168151855469	-407.8019409179689	111.1648941040039	-1006.653564453125	-202.724838256836	62.20064926147462	-985.232360839844	-200.8136444091797	64.29268646240236	-1031.879150390625	-238.0614776611329	52.14152908325197	-1078.288330078125	-292.4118347167969	796.419616699219	-679.8892211914064	-254.4569396972657	740.1769409179689	-681.7475585937501	-223.0045471191407	740.8068237304689	-690.3660278320314	-284.9765625000001	662.3065185546876	-697.9408569335939	-294.8526611328126	545.9852294921876	-706.1433105468751	-309.4499816894532	540.7933959960939	-830.5329589843752	-257.9189758300782	416.5393371582032	-736.3378295898439	-326.3634338378907	347.4733276367188	-684.3342285156251	-286.0541381835938	339.4572753906251	-704.4102172851564	-279.2902221679688	288.3185729980469	-730.9458618164064	-347.4683227539063	137.2833099365235	-711.5734863281251	-409.6206970214845	111.1914749145508	-753.2113647460939	-206.8501281738282	65.33349609375001	-787.6052246093752	-198.8014678955079	60.51646041870119	-751.4286499023439	-235.0315093994141	47.22060012817384	-696.0592651367189	231.6493072509766	1541.277587890625	-920.7297363281252	-332.0822753906251	142.9184875488282	-795.0444335937502	
1206	6.025	-226.6494750976563	1812.364868164063	-856.9251098632815	-359.2799987792969	1765.004516601563	-928.9649658203127	-392.612030029297	1740.330810546875	-767.5872192382814	-398.2573242187501	1568.110961914063	-861.3322753906252	-378.0919799804688	1264.817626953125	-863.040222167969	-254.2532958984376	1546.007690429688	-863.3367309570315	-304.2888183593751	1598.464111328125	-1007.695007324219	-135.4496612548828	1582.342407226563	-1101.984497070313	-110.0083847045899	1592.149658203125	-1059.485473632813	-67.23072052001955	1578.597290039063	-1099.827270507813	-9.518432617187502	1578.722778320313	-1088.83251953125	-18.63563919067383	1502.796264648438	-1076.917358398438	244.6013946533204	1590.601806640625	-969.7459106445315	254.5593414306641	1604.82373046875	-868.122497558594	-313.7723388671876	1578.008666992188	-703.5736083984376	-153.2669219970703	1554.359130859375	-608.2691650390626	-126.0667266845703	1572.3828125	-648.2312011718751	-83.64257812500001	1555.814208984375	-607.8750000000001	-23.34564590454102	1561.425048828125	-618.9653930664064	-24.03038215637208	1481.591674804688	-634.7362670898439	231.8809051513672	1586.55859375	-734.8560180664064	249.6336212158204	1576.760864257813	-848.9400024414065	-196.9789276123047	1078.005615234375	-975.9055786132815	-186.1937866210938	1061.673950195313	-759.7247924804689	-362.7537841796876	1119.585693359375	-855.7032470703127	-368.0304565429688	1086.702026367188	-882.1238403320315	-364.0271911621094	1089.627075195313	-824.7954101562502	-307.8536376953126	845.5833129882815	-1052.446411132813	-278.5360717773438	765.9353637695314	-1057.697021484375	-230.6171112060547	765.4927978515626	-1051.87841796875	-309.2489624023438	714.6445922851564	-1045.223999023438	-303.1322937011719	554.2149658203126	-1040.186401367188	-289.6453857421876	539.9057617187501	-918.5301513671877	-280.2140502929688	373.9114379882813	-983.4450683593752	-308.1546630859376	333.6091918945313	-1057.044799804688	-277.3372497558594	329.1578674316407	-1022.153381347656	-291.3117065429688	249.2981109619141	-998.7427978515627	-344.3696899414063	134.5688629150391	-1052.917846679688	-323.2506103515626	137.9506225585938	-969.1591796875002	-408.1434326171876	111.6003112792969	-1006.408569335938	-202.7341918945313	62.17930603027345	-985.2315673828127	-200.779281616211	64.26613616943361	-1031.914794921875	-237.9418182373047	52.15717697143556	-1078.380737304688	-292.3494567871094	796.4802856445315	-679.8168945312501	-254.4058380126954	740.1954345703126	-681.6857910156251	-222.9232788085938	740.8175048828126	-690.2413940429689	-284.9291992187501	662.2871093750001	-697.8837280273439	-294.8078918457032	546.0133666992189	-706.1091918945314	-309.3727722167969	540.7987670898439	-830.514587402344	-257.8830566406251	416.5382385253907	-736.2756958007814	-326.3422241210938	347.4987792968751	-684.3433837890626	-286.0106811523438	339.3630676269532	-704.3138427734376	-279.2414245605469	288.3021850585938	-730.9059448242189	-347.4281005859376	137.3267059326172	-711.5405883789064	-409.632537841797	111.1210403442383	-753.1748657226564	-206.8978118896485	65.2939910888672	-787.6631469726565	-198.7580261230469	60.51575469970705	-751.4786987304689	-235.0426025390626	47.2476921081543	-696.0354003906251	231.4749908447266	1540.82958984375	-920.594665527344	-332.0816650390626	142.9296417236328	-795.0285644531252	
1207	6.03	-226.6270446777344	1812.47802734375	-856.8201293945315	-359.2642517089844	1764.977294921875	-928.8826293945315	-392.6192321777345	1740.345703125	-767.5584106445314	-398.2271423339845	1568.072265625	-861.2058105468752	-378.0357360839844	1264.793579101563	-863.0210571289065	-254.3450317382813	1545.927612304688	-863.288024902344	-304.2738342285157	1598.393676757813	-1007.576965332031	-135.6226654052735	1582.3037109375	-1101.771850585938	-110.0759048461914	1592.236328125	-1059.212768554688	-67.21211242675783	1578.682250976563	-1099.688110351563	-9.604964256286623	1578.776611328125	-1088.555786132813	-18.59953689575196	1502.8134765625	-1076.66259765625	244.5395202636719	1590.89208984375	-969.5767822265627	254.6355590820313	1604.905517578125	-867.7490234375002	-313.7991638183594	1577.970336914063	-703.5101928710939	-153.3963775634766	1554.5244140625	-608.1317749023439	-126.1675720214844	1572.4033203125	-648.0288085937501	-83.80130004882814	1555.780639648438	-607.6379394531251	-23.36102676391602	1561.600952148438	-618.8691406250001	-24.08189773559571	1481.796630859375	-634.6492309570314	231.8483581542969	1586.896850585938	-734.5979614257814	249.9056701660157	1576.914428710938	-848.7016601562502	-196.8949432373047	1077.993774414063	-975.8256835937502	-186.0402221679688	1061.578857421875	-759.6654052734376	-362.6438903808594	1119.584106445313	-855.607604980469	-367.9198608398438	1086.698608398438	-882.0423583984377	-363.9975891113282	1089.742431640625	-824.7088623046877	-307.8033142089844	845.6152343750002	-1052.35302734375	-278.5428161621094	765.9357910156251	-1057.726684570313	-230.9875793457032	765.8776245117189	-1051.896728515625	-309.1546325683594	714.6098022460939	-1045.178588867188	-303.1871643066407	554.2046508789064	-1040.156372070313	-289.6281433105469	539.8925781250001	-918.477966308594	-280.1884460449219	373.9210510253907	-983.3916015625002	-308.1856384277344	333.5705871582032	-1057.03955078125	-277.3333435058594	329.1890563964844	-1022.095092773438	-291.3511352539063	249.242416381836	-998.7610473632815	-344.3988647460938	134.5959777832032	-1052.947143554688	-323.2730407714844	138.0056457519532	-969.1685180664065	-408.1598510742189	111.6420211791992	-1006.385925292969	-202.7825775146485	62.19902801513673	-985.280700683594	-200.8040924072266	64.27229309082033	-1031.876708984375	-237.9683837890626	52.21662521362306	-1078.374755859375	-292.3126831054688	796.4412841796877	-679.7919921875001	-254.3651275634766	740.2410888671876	-681.6657104492189	-222.9029998779297	740.8022460937501	-690.3557128906251	-284.8769531250001	662.2897949218751	-697.8413696289064	-294.7501220703126	545.9611816406251	-706.0617065429689	-309.3425598144532	540.7742919921876	-830.475036621094	-257.8783264160157	416.467987060547	-736.2277832031251	-326.3363647460938	347.4635314941407	-684.3406982421876	-286.0066833496094	339.3347473144532	-704.3240966796876	-279.2009277343751	288.3024291992188	-730.8977661132814	-347.4527282714844	137.2620391845703	-711.5494995117189	-409.6271972656251	111.2236557006836	-753.2276611328126	-206.8828430175782	65.30749511718751	-787.6159667968752	-198.7755432128907	60.53078460693361	-751.4330444335939	-235.0248565673829	47.20894241333009	-696.0599365234376	231.4864959716797	1541.114501953125	-920.349060058594	-332.0189208984376	142.8874664306641	-795.0283203125002	
1208	6.035	-226.6234130859376	1812.406494140625	-856.7451782226565	-359.3431091308594	1764.8212890625	-928.7849731445315	-392.6416015625001	1740.228271484375	-767.4472045898439	-398.1915283203126	1568.020263671875	-861.1436767578127	-377.8784790039063	1264.717041015625	-862.9788208007815	-254.2488708496094	1545.964965820313	-863.2365722656252	-304.2475585937501	1598.428466796875	-1007.439270019531	-135.5965728759766	1582.408325195313	-1101.588012695313	-110.0974960327149	1592.341918945313	-1059.005493164063	-67.21205139160158	1578.808471679688	-1099.499877929688	-9.625608444213869	1578.9013671875	-1088.369262695313	-18.55875015258789	1502.944702148438	-1076.406372070313	243.4124603271485	1592.213134765625	-969.5107421875002	254.6659393310547	1605.130249023438	-867.463073730469	-313.8243103027344	1577.962036132813	-703.4343872070314	-153.4393310546875	1554.6728515625	-608.0761108398439	-126.3196105957032	1572.528930664063	-647.9301757812501	-83.81729125976564	1555.830688476563	-607.5108642578126	-23.39634704589844	1561.728271484375	-618.7883911132814	-24.01884269714356	1481.80859375	-634.4776611328126	231.7653808593751	1587.177856445313	-734.3439941406251	249.8743896484376	1577.2294921875	-848.4667968750002	-196.7335815429688	1077.986328125	-975.8228759765627	-185.8896789550782	1061.547119140625	-759.5720825195314	-362.5049133300782	1119.629516601563	-855.5997314453127	-367.8560180664063	1086.66357421875	-881.9893188476565	-363.8091735839844	1089.71435546875	-824.656677246094	-307.6849365234376	845.6105957031252	-1052.339721679688	-278.4358215332032	765.9168090820314	-1057.721313476563	-230.8770599365235	765.8560180664064	-1051.790893554688	-309.1210937500001	714.6412963867189	-1045.143798828125	-303.1531066894532	554.2011108398439	-1040.137939453125	-289.6716918945313	539.8789672851564	-918.4392700195315	-280.2221679687501	373.9396057128907	-983.3594360351565	-308.1831665039063	333.5871582031251	-1057.00537109375	-277.3303833007813	329.1690063476563	-1022.097412109375	-291.3712768554688	249.2919616699219	-998.706237792969	-344.3711547851563	134.5884704589844	-1052.927001953125	-323.2771911621094	138.0262451171875	-969.1631469726565	-408.1095275878907	111.582275390625	-1006.372863769531	-202.7686462402344	62.15591049194337	-985.2045898437502	-200.7977294921876	64.2589797973633	-1031.875	-237.9774169921876	52.24373626708986	-1078.366333007813	-292.2428894042969	796.5136718750002	-679.7401123046876	-254.3455200195313	740.2012329101564	-681.6276855468751	-222.7743225097657	740.8095092773439	-690.3914184570314	-284.8358764648438	662.2640380859376	-697.8012695312501	-294.7099914550782	545.9518432617189	-706.0347290039064	-309.2404785156251	540.7895507812501	-830.4659423828127	-257.8526306152344	416.5001525878907	-736.2036132812501	-326.3004455566407	347.4832763671876	-684.3367309570314	-285.9825439453126	339.3723144531251	-704.2903442382814	-279.1890258789063	288.3370361328126	-730.9113769531251	-347.4264221191407	137.2744445800782	-711.5841064453126	-409.5510253906251	111.155746459961	-753.2055664062501	-206.9211883544922	65.3112258911133	-787.6713867187502	-198.7716979980469	60.5323944091797	-751.4351196289064	-235.0404968261719	47.21197891235352	-696.0578613281251	231.5014343261719	1541.319946289063	-920.0985107421877	-332.1097106933594	142.9248352050782	-795.0545043945315	
